<svg width="69" height="105" viewBox="0 0 69 105" fill="none" xmlns="http://www.w3.org/2000/svg">
<path d="M32.6084 70.4756L48.5605 19.0156H61.9639L39.376 83H30.4551L32.6084 70.4756ZM17.8867 19.0156L33.751 70.4756L36.0361 83H27.0273L4.52734 19.0156H17.8867Z" fill="#98E8E7"/>
<path d="M11.1914 61.6719V83H7.17773V61.6719H11.1914ZM17.8125 61.6719V64.8506H0.629883V61.6719H17.8125Z" fill="#98E8E7"/>
<path d="M59.2393 75.2217H53.7461V72.0576H59.2393C60.1377 72.0576 60.8652 71.9111 61.4219 71.6182C61.9883 71.3154 62.4033 70.9053 62.667 70.3877C62.9307 69.8604 63.0625 69.2598 63.0625 68.5859C63.0625 67.9316 62.9307 67.3213 62.667 66.7549C62.4033 66.1885 61.9883 65.7295 61.4219 65.3779C60.8652 65.0264 60.1377 64.8506 59.2393 64.8506H55.0645V83H51.0361V61.6719H59.2393C60.8994 61.6719 62.3154 61.9697 63.4873 62.5654C64.6689 63.1514 65.5674 63.9668 66.1826 65.0117C66.8076 66.0469 67.1201 67.2285 67.1201 68.5566C67.1201 69.9336 66.8076 71.1201 66.1826 72.1162C65.5674 73.1123 64.6689 73.8789 63.4873 74.416C62.3154 74.9531 60.8994 75.2217 59.2393 75.2217Z" fill="#98E8E7"/>
</svg>
